<svg xmlns="http://www.w3.org/2000/svg" viewBox="0 0 24 24" fill="currentColor">
  <path d="M23.268 5.313c-.35-2.228-2.15-3.799-4.38-4.109-.91-.125-1.88-.242-2.88-.241C12.924 1 8.292 2.55 5.832 5.313 3.78 7.675 2.68 10.545 2.68 13.239c0 2.694.42 4.738 1.24 6.262.82 1.525 2.08 2.724 3.67 3.518 1.58.794 3.33 1.173 5.23 1.173 1.94 0 3.73-.41 5.34-1.173 1.6-.794 2.86-1.993 3.68-3.518.82-1.525 1.24-3.569 1.24-6.262 0-1.13-.07-2.16-.21-3.078 0-.104-.02-.2-.06-.284a.67.67 0 00-.615-.244c-.17.04-.34.12-.49.24-.16.12-.29.28-.39.48-.1.2-.16.42-.18.66-.02.24.02.48.08.71.06.23.17.44.31.63.15.19.34.34.56.45.22.11.46.17.71.17h.5c.28 0 .52-.06.72-.17.2-.11.37-.26.5-.45.13-.19.23-.4.29-.63.06-.23.09-.47.07-.71-.02-.24-.08-.46-.18-.66-.1-.2-.23-.36-.39-.48-.15-.12-.32-.2-.49-.24a.67.67 0 00-.615.244c-.04.085-.06.18-.06.284-.14.918-.21 1.948-.21 3.078 0 2.694.42 4.738 1.24 6.262.82 1.525 2.08 2.724 3.67 3.518 1.58.794 3.33 1.173 5.23 1.173 1.94 0 3.73-.41 5.34-1.173 1.6-.794 2.86-1.993 3.68-3.518.82-1.525 1.24-3.569 1.24-6.262 0-2.694-.42-4.738-1.24-6.262C21.348 7.675 20.128 5.313 18.548 3.889c-2.46-2.463-7.092-3.513-10.388-3.513-1 .001-1.97.117-2.88.241-2.23.31-4.03 1.881-4.38 4.109C.12 5.313 0 5.313 0 5.313v13.374h23.268V5.313z"/>
</svg>
