<svg xmlns="http://www.w3.org/2000/svg" viewBox="0 0 24 24" fill="currentColor">
  <path d="M12 2C6.477 2 2 6.477 2 12s4.477 10 10 10 10-4.477 10-10S17.523 2 12 2zm5.01 14.193c-.141 1.339-1.672 2.454-3.586 2.454-1.915 0-3.446-1.115-3.588-2.454-.019-.182.04-.36.165-.498.126-.137.308-.203.497-.179.019 0 .038.002.058.004 1.276.157 2.386.157 3.662 0 .058-.007.112-.01.168-.002.196.034.377.118.503.266.125.148.186.34.165.533zm-5.582-2.483c0-.656.534-1.189 1.191-1.189.658 0 1.192.533 1.192 1.189s-.534 1.189-1.192 1.189c-.657 0-1.191-.533-1.191-1.189zm4.782 0c0-.656.534-1.189 1.191-1.189s1.191.533 1.191 1.189-.534 1.189-1.191 1.189c-.657 0-1.191-.533-1.191-1.189zm-7.422-3.147c-.573-.025-1.063-.391-1.175-.942-.112-.552.305-1.111.872-1.23.566-.119 1.117.303 1.23.855.112.552-.305 1.111-.872 1.23-.018.004-.036.006-.055.006zm9.22 1.22c-.332.376-.84.544-1.395.544-.427 0-.816-.098-1.143-.321-.327-.224-.533-.487-.616-.79l-2.146-.058c-.113.303-.319.566-.616.79-.327.223-.716.321-1.143.321-.555 0-1.063-.168-1.395-.544-.332-.376-.443-.881-.319-1.483l1.789-.528c.146-.044.27-.085.371-.125.101-.04.213-.107.336-.2.123-.093.22-.197.289-.311.069-.115.117-.243.143-.385l.364-1.727c.077-.364.271-.667.58-.91.309-.242.654-.364 1.035-.364.381 0 .726.122 1.035.364.309.243.503.546.58.91l.364 1.727c.026.142.074.27.143.385.069.114.166.218.29.311.123.093.235.16.336.2.101.04.225.081.371.125l1.789.528c.124.602.013 1.107-.319 1.483z"/>
</svg>
